<svg width="338" height="75" viewBox="0 0 338 75" fill="none" xmlns="http://www.w3.org/2000/svg">
<path d="M43.3687 9.55908L31.2896 74.541H12.7168L0.683105 9.55908H14.5332L21.9805 52.9712L29.4277 9.55908H43.3687ZM59.7163 66.2764H45.7754V1.1582H59.7163V66.2764ZM104.4 71.771H90.459L81.1499 45.8418V71.771H67.209V6.74365H81.1499L90.459 32.8091V6.74365H104.4V71.771ZM144.452 72.6792H111.893V7.69727H144.452V21.6382H125.833V33.2632H144.452V47.2041H125.833V58.8291H144.452V72.6792ZM208.208 8.60547L196.128 73.6328H181.234L177.51 52.063L173.787 73.6328H158.938L146.904 8.60547H160.754L168.201 44.6157L173.787 8.60547H181.234L186.819 44.6157L194.267 8.60547H208.208ZM233.773 51.3818V14.1909H224.464V51.3818H233.773ZM247.714 56.0591L238.405 65.3682H219.833L210.523 56.0591V9.55908L219.833 0.25H238.405L247.714 9.55908V56.0591ZM278.457 51.3818V14.1909H269.148V51.3818H278.457ZM292.398 56.0591L283.089 65.3682H264.516L255.207 56.0591V9.55908L264.516 0.25H283.089L292.398 9.55908V56.0591ZM323.141 56.9673V19.7764H313.832V56.9673H323.141ZM337.082 61.6445L327.772 70.8174H299.891V5.83545H327.772L337.082 15.1445V61.6445Z" fill="white"/>
</svg>
